<svg xmlns="http://www.w3.org/2000/svg" viewBox="0 0 1600 900" role="img" aria-labelledby="title desc">
  <title id="title">Was SEO im Monat kostet</title>
  <desc id="desc">Eine Balkenwaage vergleicht ein monatliches Budget aus Euromünzen mit einem wachsenden Ergebnis. Darunter zeigt eine Zeitachse Monat eins, drei und sechs.</desc>
  <rect x="40" y="40" width="1520" height="820" rx="36" fill="#F5F7FA"/>

  <g stroke="#172A45" stroke-width="4" stroke-linecap="round" stroke-linejoin="round" fill="none">
    <path d="M420 318 240 545M420 318l180 227"/>
    <path d="m1180 318-180 227m180-227 180 227"/>
  </g>

  <g stroke="#0A192F" stroke-width="6" stroke-linecap="round" stroke-linejoin="round">
    <path d="M240 545h360c-12 56-82 88-180 88s-168-32-180-88Z" fill="#FFFFFF"/>
    <path d="M1000 545h360c-12 56-82 88-180 88s-168-32-180-88Z" fill="#FFFFFF"/>
    <path d="M280 318h1040" fill="none" stroke-width="7"/>
    <path d="m800 352-108 314h216L800 352Z" fill="#E9EEF3"/>
    <path d="M652 666h296" fill="none"/>
  </g>
  <circle cx="800" cy="318" r="30" fill="#E53935" stroke="#0A192F" stroke-width="6"/>
  <circle cx="800" cy="318" r="9" fill="#FFFFFF"/>

  <g stroke="#0A192F" stroke-width="5" stroke-linecap="round" stroke-linejoin="round">
    <path d="M332 505v30c0 15 40 26 88 26s88-11 88-26v-30Z" fill="#E9EEF3"/>
    <ellipse cx="420" cy="505" rx="88" ry="26" fill="#FFFFFF"/>
    <path d="M332 470v30c0 15 40 26 88 26s88-11 88-26v-30Z" fill="#E9EEF3"/>
    <ellipse cx="420" cy="470" rx="88" ry="26" fill="#FFFFFF"/>
    <path d="M332 435v30c0 15 40 26 88 26s88-11 88-26v-30Z" fill="#E9EEF3"/>
    <ellipse cx="420" cy="435" rx="88" ry="26" fill="#E53935"/>
    <path d="M451 420c-8-7-17-10-28-10-20 0-35 10-41 25m-5 0h52m-56 14h52m-43 0c6 16 20 25 41 25 11 0 21-3 29-10" fill="none" stroke="#FFFFFF"/>
  </g>

  <g stroke="#0A192F" stroke-width="5" stroke-linecap="round" stroke-linejoin="round">
    <rect x="1010" y="385" width="320" height="155" rx="20" fill="#FFFFFF"/>
    <path d="M1050 420v81h235" fill="none"/>
    <path d="m1072 484 55-35 50 20 72-62" fill="none" stroke="#E53935" stroke-width="7"/>
    <circle cx="1072" cy="484" r="7" fill="#E53935" stroke="none"/>
    <circle cx="1127" cy="449" r="7" fill="#E53935" stroke="none"/>
    <circle cx="1177" cy="469" r="7" fill="#E53935" stroke="none"/>
    <circle cx="1249" cy="407" r="7" fill="#E53935" stroke="none"/>
    <circle cx="1249" cy="407" r="39" fill="#F5F7FA" stroke="#172A45" stroke-width="6"/>
    <path d="m1277 435 34 34" fill="none" stroke="#172A45" stroke-width="7"/>
  </g>

  <g font-family="Inter, Helvetica, Arial, sans-serif" font-size="28" font-weight="700" text-anchor="middle" fill="#0A192F">
    <text x="420" y="690">Budget</text>
    <text x="1180" y="690">Ergebnis</text>
  </g>

  <g stroke="#172A45" stroke-width="5" stroke-linecap="round" stroke-linejoin="round" fill="none">
    <path d="M330 752h940l-18-14m18 14-18 14"/>
    <path d="M420 738v28M800 738v28M1180 738v28"/>
  </g>
  <g fill="#E53935" stroke="#FFFFFF" stroke-width="4">
    <circle cx="420" cy="752" r="10"/>
    <circle cx="800" cy="752" r="10"/>
    <circle cx="1180" cy="752" r="10"/>
  </g>
  <g font-family="Inter, Helvetica, Arial, sans-serif" font-size="26" font-weight="600" text-anchor="middle" fill="#666666">
    <text x="420" y="817">Monat 1</text>
    <text x="800" y="817">Monat 3</text>
    <text x="1180" y="817">Monat 6</text>
  </g>
</svg>
