<svg xmlns="http://www.w3.org/2000/svg" viewBox="0 0 1200 675" role="img" aria-labelledby="title desc">
  <title id="title">Absprungrate steigt mit der Ladezeit</title>
  <desc id="desc">Diagramm mit den Ladezeiten 1, 3 und 5 Sekunden. Nach 3 Sekunden verlassen 53 Prozent der mobilen Besucher die Seite.</desc>
  <g fill="none" stroke-linecap="round" stroke-linejoin="round">
    <path fill="#F5F7FA" d="M520 104h504a24 24 0 0 1 24 24v424H520z"/>
    <path fill="#E53935" fill-opacity=".08" d="M520 104h504a24 24 0 0 1 24 24v424H520z"/>
    <path stroke="#172A45" stroke-width="3" d="M152 552h896M152 552V128"/>
    <path stroke="#172A45" stroke-width="2" d="M152 446h896M152 340h896M152 234h896"/>
    <path stroke="#2E9E6B" stroke-width="8" d="M224 491c72-8 139-21 200-43"/>
    <path stroke="#E53935" stroke-width="8" d="M424 448c88-34 150-95 208-181 70-104 151-139 328-159"/>
    <path stroke="#2E9E6B" stroke-width="4" d="M280 552v-61"/>
    <path stroke="#E53935" stroke-width="4" d="M600 552V301M920 552V132"/>
    <path fill="#2E9E6B" stroke="#FFFFFF" stroke-width="8" d="M280 475a16 16 0 1 1 0 32 16 16 0 0 1 0-32z"/>
    <path fill="#E53935" stroke="#FFFFFF" stroke-width="8" d="M600 285a16 16 0 1 1 0 32 16 16 0 0 1 0-32zM920 116a16 16 0 1 1 0 32 16 16 0 0 1 0-32z"/>
    <path fill="#0A192F" d="M646 212h160a18 18 0 0 1 18 18v76a18 18 0 0 1-18 18H646a18 18 0 0 1-18-18v-76a18 18 0 0 1 18-18z"/>
    <path fill="#0A192F" d="m650 319-34 25 13-43z"/>
    <path stroke="#E53935" stroke-width="3" d="M520 104v448"/>
  </g>
  <g font-family="sans-serif" fill="#0A192F">
    <text x="152" y="82" font-size="30" font-weight="700">Absprungrate</text>
    <text x="280" y="610" font-size="30" font-weight="700" text-anchor="middle">1s</text>
    <text x="600" y="610" font-size="30" font-weight="700" text-anchor="middle">3s</text>
    <text x="920" y="610" font-size="30" font-weight="700" text-anchor="middle">5s</text>
  </g>
  <text x="726" y="286" fill="#FFFFFF" font-family="sans-serif" font-size="48" font-weight="700" text-anchor="middle">53%</text>
</svg>
