<svg xmlns="http://www.w3.org/2000/svg" viewBox="0 0 800 360" width="800" height="360" font-family="Archivo, &#x27;Helvetica Neue&#x27;, Helvetica, Arial, sans-serif" role="img" aria-label="Blitz Hamburg: Kontaktklicks auf der Website pro Monat"><rect width="800" height="360" fill="#FFFFFF"/><line x1="52" y1="324.0" x2="780" y2="324.0" stroke="#EBEBEB" stroke-width="1"/><text x="44" y="328.0" font-size="11.5" fill="#8F8F8F" text-anchor="end">0</text><line x1="52" y1="259.0" x2="780" y2="259.0" stroke="#EBEBEB" stroke-width="1"/><text x="44" y="263.0" font-size="11.5" fill="#8F8F8F" text-anchor="end">25</text><line x1="52" y1="194.0" x2="780" y2="194.0" stroke="#EBEBEB" stroke-width="1"/><text x="44" y="198.0" font-size="11.5" fill="#8F8F8F" text-anchor="end">50</text><line x1="52" y1="129.0" x2="780" y2="129.0" stroke="#EBEBEB" stroke-width="1"/><text x="44" y="133.0" font-size="11.5" fill="#8F8F8F" text-anchor="end">75</text><line x1="52" y1="64.0" x2="780" y2="64.0" stroke="#EBEBEB" stroke-width="1"/><text x="44" y="68.0" font-size="11.5" fill="#8F8F8F" text-anchor="end">100</text><path class="mark" data-tip="Mär 26: 57 Kontaktklicks" d="M92.0,324.0 v-148.2 h24.0 v148.2 Z" fill="#D4D4D4"><title>Mär 26: 57 Kontaktklicks</title></path><text x="104.0" y="167.8" font-size="12.5" font-weight="650" fill="#171717" text-anchor="middle">57</text><path class="mark" data-tip="Apr 26: 42 Kontaktklicks" d="M196.0,324.0 v-109.2 h24.0 v109.2 Z" fill="#D4D4D4"><title>Apr 26: 42 Kontaktklicks</title></path><path class="mark" data-tip="Mai 26: 30 Kontaktklicks" d="M300.0,324.0 v-78.0 h24.0 v78.0 Z" fill="#171717"><title>Mai 26: 30 Kontaktklicks</title></path><path class="mark" data-tip="Jun 26: 24 Kontaktklicks" d="M404.0,324.0 v-62.4 h24.0 v62.4 Z" fill="#171717"><title>Jun 26: 24 Kontaktklicks</title></path><text x="416.0" y="253.6" font-size="12.5" font-weight="650" fill="#171717" text-anchor="middle">24</text><path class="mark" data-tip="Jul 26: 83 Kontaktklicks" d="M508.0,324.0 v-215.8 h24.0 v215.8 Z" fill="#171717"><title>Jul 26: 83 Kontaktklicks</title></path><path class="mark" data-tip="Aug 26: 78 Kontaktklicks" d="M612.0,324.0 v-202.8 h24.0 v202.8 Z" fill="#171717"><title>Aug 26: 78 Kontaktklicks</title></path><path class="mark" data-tip="Sep 26: 87 Kontaktklicks" d="M716.0,324.0 v-226.2 h24.0 v226.2 Z" fill="#171717"><title>Sep 26: 87 Kontaktklicks</title></path><text x="728.0" y="89.8" font-size="12.5" font-weight="650" fill="#171717" text-anchor="middle">87</text><line x1="52" y1="324" x2="780" y2="324" stroke="#8F8F8F" stroke-width="1"/><text x="104.0" y="344" font-size="11.5" fill="#4D4D4D" text-anchor="middle">Mär 26</text><text x="208.0" y="344" font-size="11.5" fill="#4D4D4D" text-anchor="middle">Apr 26</text><text x="312.0" y="344" font-size="11.5" fill="#4D4D4D" text-anchor="middle">Mai 26</text><text x="416.0" y="344" font-size="11.5" fill="#4D4D4D" text-anchor="middle">Jun 26</text><text x="520.0" y="344" font-size="11.5" fill="#4D4D4D" text-anchor="middle">Jul 26</text><text x="624.0" y="344" font-size="11.5" fill="#4D4D4D" text-anchor="middle">Aug 26</text><text x="728.0" y="344" font-size="11.5" fill="#4D4D4D" text-anchor="middle">Sep 26</text><line x1="260.0" y1="50" x2="260.0" y2="324" stroke="#171717" stroke-width="1"/><text x="266.0" y="60" font-size="11.5" font-weight="600" fill="#171717" text-anchor="start">Relaunch Mai 2026</text><rect x="558.5" y="14" width="11" height="11" fill="#D4D4D4"/><text x="574.5" y="24" font-size="11.5" fill="#4D4D4D">vor Relaunch</text><rect x="676.9" y="14" width="11" height="11" fill="#171717"/><text x="692.9" y="24" font-size="11.5" fill="#4D4D4D">nach Relaunch</text></svg>