<svg xmlns="http://www.w3.org/2000/svg" viewBox="0 0 380 320" width="380" height="320" font-family="Archivo, &#x27;Helvetica Neue&#x27;, Helvetica, Arial, sans-serif" role="img" aria-label="DYBeauty: Google-Klicks ohne Marken-Suchen"><rect width="380" height="320" fill="#FFFFFF"/><line x1="52" y1="284.0" x2="360" y2="284.0" stroke="#EBEBEB" stroke-width="1"/><text x="44" y="288.0" font-size="11.5" fill="#8F8F8F" text-anchor="end">0</text><line x1="52" y1="229.0" x2="360" y2="229.0" stroke="#EBEBEB" stroke-width="1"/><text x="44" y="233.0" font-size="11.5" fill="#8F8F8F" text-anchor="end">250</text><line x1="52" y1="174.0" x2="360" y2="174.0" stroke="#EBEBEB" stroke-width="1"/><text x="44" y="178.0" font-size="11.5" fill="#8F8F8F" text-anchor="end">500</text><line x1="52" y1="119.0" x2="360" y2="119.0" stroke="#EBEBEB" stroke-width="1"/><text x="44" y="123.0" font-size="11.5" fill="#8F8F8F" text-anchor="end">750</text><line x1="52" y1="64.0" x2="360" y2="64.0" stroke="#EBEBEB" stroke-width="1"/><text x="44" y="68.0" font-size="11.5" fill="#8F8F8F" text-anchor="end">1.000</text><path class="mark" data-tip="Jan 26: 471 Klicks" d="M58.5,284.0 v-103.6 h21.2 v103.6 Z" fill="#D4D4D4"><title>Jan 26: 471 Klicks</title></path><text x="69.1" y="172.4" font-size="12.5" font-weight="650" fill="#171717" text-anchor="middle">471</text><path class="mark" data-tip="Feb 26: 446 Klicks" d="M92.7,284.0 v-98.1 h21.2 v98.1 Z" fill="#D4D4D4"><title>Feb 26: 446 Klicks</title></path><text x="103.3" y="177.9" font-size="12.5" font-weight="650" fill="#171717" text-anchor="middle">446</text><path class="mark" data-tip="Mär 26: 571 Klicks" d="M126.9,284.0 v-125.6 h21.2 v125.6 Z" fill="#D4D4D4"><title>Mär 26: 571 Klicks</title></path><path class="mark" data-tip="Apr 26: 450 Klicks" d="M161.2,284.0 v-99.0 h21.2 v99.0 Z" fill="#171717"><title>Apr 26: 450 Klicks</title></path><path class="mark" data-tip="Mai 26: 452 Klicks" d="M195.4,284.0 v-99.4 h21.2 v99.4 Z" fill="#171717"><title>Mai 26: 452 Klicks</title></path><path class="mark" data-tip="Jun 26: 469 Klicks" d="M229.6,284.0 v-103.2 h21.2 v103.2 Z" fill="#171717"><title>Jun 26: 469 Klicks</title></path><path class="mark" data-tip="Jul 26: 665 Klicks" d="M263.8,284.0 v-146.3 h21.2 v146.3 Z" fill="#171717"><title>Jul 26: 665 Klicks</title></path><path class="mark" data-tip="Aug 26: 713 Klicks" d="M298.1,284.0 v-156.9 h21.2 v156.9 Z" fill="#171717"><title>Aug 26: 713 Klicks</title></path><path class="mark" data-tip="Sep 26: 810 Klicks" d="M332.3,284.0 v-178.2 h21.2 v178.2 Z" fill="#171717"><title>Sep 26: 810 Klicks</title></path><text x="342.9" y="97.8" font-size="12.5" font-weight="650" fill="#171717" text-anchor="middle">810</text><line x1="52" y1="284" x2="360" y2="284" stroke="#8F8F8F" stroke-width="1"/><text x="69.1" y="304" font-size="11.5" fill="#4D4D4D" text-anchor="middle">Jan 26</text><text x="137.6" y="304" font-size="11.5" fill="#4D4D4D" text-anchor="middle">Mär 26</text><text x="206.0" y="304" font-size="11.5" fill="#4D4D4D" text-anchor="middle">Mai 26</text><text x="274.4" y="304" font-size="11.5" fill="#4D4D4D" text-anchor="middle">Jul 26</text><text x="342.9" y="304" font-size="11.5" fill="#4D4D4D" text-anchor="middle">Sep 26</text><line x1="154.7" y1="50" x2="154.7" y2="284" stroke="#171717" stroke-width="1"/><text x="160.7" y="60" font-size="11.5" font-weight="600" fill="#171717" text-anchor="start">SEO-Arbeit ab 16.03.2026</text><rect x="131.8" y="14" width="11" height="11" fill="#D4D4D4"/><text x="147.8" y="24" font-size="11.5" fill="#4D4D4D">bis März 2026</text><rect x="256.9" y="14" width="11" height="11" fill="#171717"/><text x="272.9" y="24" font-size="11.5" fill="#4D4D4D">ab April 2026</text></svg>