<svg xmlns="http://www.w3.org/2000/svg" viewBox="0 0 380 320" width="380" height="320" font-family="Archivo, &#x27;Helvetica Neue&#x27;, Helvetica, Arial, sans-serif" role="img" aria-label="DYBeauty: Sitzungen aus der organischen Suche"><rect width="380" height="320" fill="#FFFFFF"/><line x1="52" y1="284.0" x2="360" y2="284.0" stroke="#EBEBEB" stroke-width="1"/><text x="44" y="288.0" font-size="11.5" fill="#8F8F8F" text-anchor="end">0</text><line x1="52" y1="229.0" x2="360" y2="229.0" stroke="#EBEBEB" stroke-width="1"/><text x="44" y="233.0" font-size="11.5" fill="#8F8F8F" text-anchor="end">200</text><line x1="52" y1="174.0" x2="360" y2="174.0" stroke="#EBEBEB" stroke-width="1"/><text x="44" y="178.0" font-size="11.5" fill="#8F8F8F" text-anchor="end">400</text><line x1="52" y1="119.0" x2="360" y2="119.0" stroke="#EBEBEB" stroke-width="1"/><text x="44" y="123.0" font-size="11.5" fill="#8F8F8F" text-anchor="end">600</text><line x1="52" y1="64.0" x2="360" y2="64.0" stroke="#EBEBEB" stroke-width="1"/><text x="44" y="68.0" font-size="11.5" fill="#8F8F8F" text-anchor="end">800</text><path class="mark" data-tip="Jan 25: 330 Sitzungen" d="M54.8,284.0 v-90.8 h9.1 v90.8 Z" fill="#D4D4D4"><title>Jan 25: 330 Sitzungen</title></path><path class="mark" data-tip="Feb 25: 289 Sitzungen" d="M69.5,284.0 v-79.5 h9.1 v79.5 Z" fill="#D4D4D4"><title>Feb 25: 289 Sitzungen</title></path><path class="mark" data-tip="Mär 25: 353 Sitzungen" d="M84.1,284.0 v-97.1 h9.1 v97.1 Z" fill="#D4D4D4"><title>Mär 25: 353 Sitzungen</title></path><path class="mark" data-tip="Apr 25: 420 Sitzungen" d="M98.8,284.0 v-115.5 h9.1 v115.5 Z" fill="#D4D4D4"><title>Apr 25: 420 Sitzungen</title></path><path class="mark" data-tip="Mai 25: 440 Sitzungen" d="M113.5,284.0 v-121.0 h9.1 v121.0 Z" fill="#D4D4D4"><title>Mai 25: 440 Sitzungen</title></path><path class="mark" data-tip="Jun 25: 433 Sitzungen" d="M128.1,284.0 v-119.1 h9.1 v119.1 Z" fill="#D4D4D4"><title>Jun 25: 433 Sitzungen</title></path><path class="mark" data-tip="Jul 25: 323 Sitzungen" d="M142.8,284.0 v-88.8 h9.1 v88.8 Z" fill="#D4D4D4"><title>Jul 25: 323 Sitzungen</title></path><path class="mark" data-tip="Aug 25: 382 Sitzungen" d="M157.5,284.0 v-105.0 h9.1 v105.0 Z" fill="#D4D4D4"><title>Aug 25: 382 Sitzungen</title></path><path class="mark" data-tip="Sep 25: 365 Sitzungen" d="M172.1,284.0 v-100.4 h9.1 v100.4 Z" fill="#D4D4D4"><title>Sep 25: 365 Sitzungen</title></path><text x="176.7" y="175.6" font-size="12.5" font-weight="650" fill="#171717" text-anchor="middle">365</text><path class="mark" data-tip="Okt 25: 524 Sitzungen" d="M186.8,284.0 v-144.1 h9.1 v144.1 Z" fill="#D4D4D4"><title>Okt 25: 524 Sitzungen</title></path><path class="mark" data-tip="Nov 25: 572 Sitzungen" d="M201.5,284.0 v-157.3 h9.1 v157.3 Z" fill="#D4D4D4"><title>Nov 25: 572 Sitzungen</title></path><path class="mark" data-tip="Dez 25: 498 Sitzungen" d="M216.1,284.0 v-137.0 h9.1 v137.0 Z" fill="#D4D4D4"><title>Dez 25: 498 Sitzungen</title></path><path class="mark" data-tip="Jan 26: 508 Sitzungen" d="M230.8,284.0 v-139.7 h9.1 v139.7 Z" fill="#D4D4D4"><title>Jan 26: 508 Sitzungen</title></path><path class="mark" data-tip="Feb 26: 476 Sitzungen" d="M245.5,284.0 v-130.9 h9.1 v130.9 Z" fill="#D4D4D4"><title>Feb 26: 476 Sitzungen</title></path><text x="250.0" y="145.1" font-size="12.5" font-weight="650" fill="#171717" text-anchor="middle">476</text><path class="mark" data-tip="Mär 26: 717 Sitzungen" d="M260.1,284.0 v-197.2 h9.1 v197.2 Z" fill="#D4D4D4"><title>Mär 26: 717 Sitzungen</title></path><path class="mark" data-tip="Apr 26: 578 Sitzungen" d="M274.8,284.0 v-159.0 h9.1 v159.0 Z" fill="#171717"><title>Apr 26: 578 Sitzungen</title></path><path class="mark" data-tip="Mai 26: 526 Sitzungen" d="M289.5,284.0 v-144.7 h9.1 v144.7 Z" fill="#171717"><title>Mai 26: 526 Sitzungen</title></path><path class="mark" data-tip="Jun 26: 528 Sitzungen" d="M304.1,284.0 v-145.2 h9.1 v145.2 Z" fill="#171717"><title>Jun 26: 528 Sitzungen</title></path><path class="mark" data-tip="Jul 26: 528 Sitzungen" d="M318.8,284.0 v-145.2 h9.1 v145.2 Z" fill="#171717"><title>Jul 26: 528 Sitzungen</title></path><path class="mark" data-tip="Aug 26: 494 Sitzungen" d="M333.5,284.0 v-135.9 h9.1 v135.9 Z" fill="#171717"><title>Aug 26: 494 Sitzungen</title></path><path class="mark" data-tip="Sep 26: 684 Sitzungen" d="M348.1,284.0 v-188.1 h9.1 v188.1 Z" fill="#171717"><title>Sep 26: 684 Sitzungen</title></path><text x="352.7" y="87.9" font-size="12.5" font-weight="650" fill="#171717" text-anchor="middle">684</text><line x1="52" y1="284" x2="360" y2="284" stroke="#8F8F8F" stroke-width="1"/><text x="88.7" y="304" font-size="11.5" fill="#4D4D4D" text-anchor="middle">Mär 25</text><text x="132.7" y="304" font-size="11.5" fill="#4D4D4D" text-anchor="middle">Jun 25</text><text x="176.7" y="304" font-size="11.5" fill="#4D4D4D" text-anchor="middle">Sep 25</text><text x="220.7" y="304" font-size="11.5" fill="#4D4D4D" text-anchor="middle">Dez 25</text><text x="264.7" y="304" font-size="11.5" fill="#4D4D4D" text-anchor="middle">Mär 26</text><text x="308.7" y="304" font-size="11.5" fill="#4D4D4D" text-anchor="middle">Jun 26</text><text x="352.7" y="304" font-size="11.5" fill="#4D4D4D" text-anchor="middle">Sep 26</text><line x1="272.0" y1="50" x2="272.0" y2="284" stroke="#171717" stroke-width="1"/><text x="266.0" y="60" font-size="11.5" font-weight="600" fill="#171717" text-anchor="end">SEO-Arbeit ab 16.03.2026</text><rect x="131.8" y="14" width="11" height="11" fill="#D4D4D4"/><text x="147.8" y="24" font-size="11.5" fill="#4D4D4D">bis März 2026</text><rect x="256.9" y="14" width="11" height="11" fill="#171717"/><text x="272.9" y="24" font-size="11.5" fill="#4D4D4D">ab April 2026</text></svg>